<svg id="Calque_1" data-name="Calque 1" xmlns="http://www.w3.org/2000/svg" viewBox="0 0 90 90"><defs><style>.cls-1{fill:#e63c21;}</style></defs><title>icon-insta</title><path class="cls-1" d="M45.69,16.47c9.59,0,10.73,0,14.52.21a20,20,0,0,1,6.67,1.24,11.82,11.82,0,0,1,6.81,6.81,20,20,0,0,1,1.24,6.67c.17,3.79.21,4.93.21,14.52s0,10.72-.21,14.51a20,20,0,0,1-1.24,6.67,11.82,11.82,0,0,1-6.81,6.81,19.69,19.69,0,0,1-6.67,1.24c-3.79.17-4.93.21-14.52.21s-10.72,0-14.51-.21a19.69,19.69,0,0,1-6.67-1.24A11.82,11.82,0,0,1,17.7,67.1a19.69,19.69,0,0,1-1.24-6.67c-.17-3.79-.21-4.92-.21-14.51s0-10.73.21-14.52a19.69,19.69,0,0,1,1.24-6.67,11.82,11.82,0,0,1,6.81-6.81,20,20,0,0,1,6.67-1.24c3.79-.17,4.92-.21,14.51-.21m0-6.47c-9.75,0-11,0-14.8.22a26.14,26.14,0,0,0-8.72,1.67A17.41,17.41,0,0,0,15.81,16a17.57,17.57,0,0,0-4.15,6.36A26.66,26.66,0,0,0,10,31.11c-.17,3.83-.21,5-.21,14.81s0,11,.21,14.8a26.66,26.66,0,0,0,1.67,8.72A18.45,18.45,0,0,0,22.17,80a26.66,26.66,0,0,0,8.72,1.67c3.83.17,5,.21,14.8.21s11,0,14.81-.21A26.71,26.71,0,0,0,69.22,80a17.65,17.65,0,0,0,6.36-4.15,17.41,17.41,0,0,0,4.14-6.36,26.14,26.14,0,0,0,1.67-8.72c.18-3.83.22-5,.22-14.8s0-11-.22-14.81a26.14,26.14,0,0,0-1.67-8.72,18.34,18.34,0,0,0-10.5-10.5,26.2,26.2,0,0,0-8.72-1.67C56.67,10,55.45,10,45.69,10Zm0,17.47A18.45,18.45,0,1,0,64.14,45.92,18.45,18.45,0,0,0,45.69,27.47Zm0,30.42a12,12,0,1,1,12-12A12,12,0,0,1,45.69,57.89ZM69.18,26.74a4.31,4.31,0,1,1-4.31-4.31A4.31,4.31,0,0,1,69.18,26.74Z"/></svg>