<svg id="Calque_1" data-name="Calque 1" xmlns="http://www.w3.org/2000/svg" viewBox="0 0 70 70"><defs><style>.cls-1{fill:#fff;}</style></defs><title>icon-events</title><path class="cls-1" d="M49.73,17.28H47.62V13.05H43.39v4.23H26.49V13.05H22.27v4.23H20.15A4.2,4.2,0,0,0,16,21.5l0,29.58a4.22,4.22,0,0,0,4.22,4.22H49.73A4.22,4.22,0,0,0,54,51.08V21.5A4.22,4.22,0,0,0,49.73,17.28Zm0,33.8H20.15V27.84H49.73Z"/><polygon class="cls-1" points="44.51 34.3 42.27 32.07 31.96 42.38 27.48 37.9 25.25 40.13 31.96 46.85 44.51 34.3"/></svg>