<svg id="Calque_1" data-name="Calque 1" xmlns="http://www.w3.org/2000/svg" viewBox="0 0 70 70"><defs><style>.cls-1{fill:#fff;fill-rule:evenodd;}.cls-2{fill:none;stroke:#fff;stroke-miterlimit:10;stroke-width:0.52px;}</style></defs><title>icon-W</title><path class="cls-1" d="M62.18,26.08c-.06-1,.25-1.78.17-2.83-.27-3.34-1-5.57-5.16-6.38-.72.29-1.88.12-2.66.46-3,1.29-3,5.71-2.8,9,.09,1.45-.59,3.67.61,4.37.3.31.64.26,1.12.33.37-.25.69-.25.93-.71.46-.45.3-1.43.25-2.22-.12-1.87.1-3.77,0-5.54a3.11,3.11,0,0,1,.59-2A1.29,1.29,0,0,1,56.37,20a2.47,2.47,0,0,1,1.91.38c1.38,1.06.82,2.73.95,4.65.26,3.77-.15,7.81.06,11.59,0,.69-.2,1.37-.17,1.84a6.17,6.17,0,0,1,0,1.49,4.12,4.12,0,0,0-.27,1.33c0,.36.37.66.49,1,.3.14.6.42.94.28,2.2.34,2-4.29,1.92-5.65l.09-1.46C62.08,32.34,62.34,29.13,62.18,26.08ZM32.53,22.93c.82-.14,1-1.39,1.58-2a5.75,5.75,0,0,1,2.79-1.62,11.51,11.51,0,0,1,1.91-.12,5.23,5.23,0,0,1,4,2.1c2.57,2.84,1.23,9.74,1.53,14.15.11,1.65-.23,2.86.24,4.21a3.55,3.55,0,0,0,1.49.49,7.86,7.86,0,0,1,.89-.51,13.06,13.06,0,0,0,.27-4.79c-.08-1.28.11-2.48,0-3.66,0-2.1.05-4.21.07-6.32-.44-4.51-2.64-7.54-8.26-8.67-.33.12-.76-.08-1.18,0a11.5,11.5,0,0,0-2.78.53,9.3,9.3,0,0,0-3.44,2.38c-.47.51-.65,1.36-1.16,1.85-.24,1.16.16,1.39.68,2A1.67,1.67,0,0,0,32.53,22.93ZM8.21,28.75l1.21.34a6.5,6.5,0,0,1,1-.49c.59-1.85-.22-4.52.95-6.74,1.84-3.48,8.09-4,10,0,1.65,3.48.79,8.48,1.08,12.88.12,1.8-.22,3.57.29,5,.43.21,1,.56,1.52.3a1,1,0,0,0,.8-.53c.43-.41.39-1.52.34-2.21-.11-1.77-.06-3.79-.07-5.55-.06-7.09.7-14.07-7.94-15.74-.36.13-.85-.11-1.28-.06-.63.08-1.37.15-2,.29A8.28,8.28,0,0,0,8.47,21a12.37,12.37,0,0,0-.7,5.5C7.81,27.38,7.62,28.26,8.21,28.75ZM41.68,47.42a8,8,0,0,0,3.22.74l1.26.15c3.35-.42,5.52-1.46,7.21-4.4a8.18,8.18,0,0,0,1-5.53,1.21,1.21,0,0,1-.52-.4,2.47,2.47,0,0,0-1.71.15c-.94,2-.78,4.29-2.34,5.77a6.64,6.64,0,0,1-7.59.36,6.88,6.88,0,0,1-2.14-3.2c-.43-1.19-.07-2.65-.17-4.09-.18-2.79.13-5.84-.06-8.62,0-1.15.07-2.3.1-3.45-.07-.42-.41-.74-.57-1.1l-1.12-.32a8.27,8.27,0,0,1-1,.49c-.75,1.7-.42,5.17-.33,7.06.12,2.26-.17,4.48,0,6.63l-.12,2.05C37.23,43,38.67,45.81,41.68,47.42ZM31.2,43.94a8.32,8.32,0,0,0,1.31-4.1c-.07-1.59.05-3.41-.1-5-.12-1.35.43-3.66,0-4.76-.11-.26-.43-.44-.56-.7a2.32,2.32,0,0,0-1.9.11c-1.77,3.74,1.63,12.59-3.06,14.83a9.07,9.07,0,0,1-4.47.59,5.62,5.62,0,0,1-3.11-1.32c-2.58-2.58-1.19-10.1-1.48-14.35-.17-2.47,1-5.06-1.39-5.91a9.13,9.13,0,0,1-1.07.38,7.4,7.4,0,0,0-.42.61,4.93,4.93,0,0,0,0,2.16c.1,1.72-.12,3.43,0,5.05.36,5.93-1.24,10.7,2.66,14.39a7.08,7.08,0,0,0,3.39,1.86C25.13,48.56,28.87,47.7,31.2,43.94ZM14,48.81a13.86,13.86,0,0,1-2.17-3.5,16.54,16.54,0,0,1-1.1-5.37,26.14,26.14,0,0,0-.25-4.2,3.7,3.7,0,0,0-1.18-.54c-.12.06-.17,0-.4,0l-.78.44a9.6,9.6,0,0,0-.28,4.4c.08.92,0,1.63.09,2.49a16.24,16.24,0,0,0,3.28,7.38c1.06,1.41,2,3.31,4.26,2.44.21-.44.56-1,.3-1.52C15.63,50,14.54,49.41,14,48.81Zm42.58-.6a.76.76,0,0,1-.5,0,23.89,23.89,0,0,0-2.28,2A11.94,11.94,0,0,1,41.32,51.7a34.34,34.34,0,0,1-3.63-2.11c-1-.72-1.73-1.73-3.18-1.92-1.92,1.26-3.57,3-5.73,3.9-1.62.66-3.6.8-5.23,1.43-.15.3-.49.73-.32,1.12a1.1,1.1,0,0,0,.64,1.22c.77.71,2.5,0,3.1-.18A15.27,15.27,0,0,0,33.63,52c.35-.31.8-.42,1.07-.87a15.68,15.68,0,0,1,3,2A31,31,0,0,0,42,55.2a6.66,6.66,0,0,0,2,.4c4.19,1.06,9.09-.9,11.49-3.05.93-.83,2-1.24,2.38-3A2.86,2.86,0,0,0,56.57,48.21Z"/><path class="cls-2" d="M62.18,26.08c-.06-1,.25-1.78.17-2.83-.27-3.34-1-5.57-5.16-6.38-.72.29-1.88.12-2.66.46-3,1.29-3,5.71-2.8,9,.09,1.45-.59,3.67.61,4.37.3.31.64.26,1.12.33.37-.25.69-.25.93-.71.46-.45.3-1.43.25-2.22-.12-1.87.1-3.77,0-5.54a3.11,3.11,0,0,1,.59-2A1.29,1.29,0,0,1,56.37,20a2.47,2.47,0,0,1,1.91.38c1.38,1.06.82,2.73.95,4.65.26,3.77-.15,7.81.06,11.59,0,.69-.2,1.37-.17,1.84a6.17,6.17,0,0,1,0,1.49,4.12,4.12,0,0,0-.27,1.33c0,.36.37.66.49,1,.3.14.6.42.94.28,2.2.34,2-4.29,1.92-5.65l.09-1.46C62.08,32.34,62.34,29.13,62.18,26.08ZM32.53,22.93c.82-.14,1-1.39,1.58-2a5.75,5.75,0,0,1,2.79-1.62,11.51,11.51,0,0,1,1.91-.12,5.23,5.23,0,0,1,4,2.1c2.57,2.84,1.23,9.74,1.53,14.15.11,1.65-.23,2.86.24,4.21a3.55,3.55,0,0,0,1.49.49,7.86,7.86,0,0,1,.89-.51,13.06,13.06,0,0,0,.27-4.79c-.08-1.28.11-2.48,0-3.66,0-2.1.05-4.21.07-6.32-.44-4.51-2.64-7.54-8.26-8.67-.33.12-.76-.08-1.18,0a11.5,11.5,0,0,0-2.78.53,9.3,9.3,0,0,0-3.44,2.38c-.47.51-.65,1.36-1.16,1.85-.24,1.16.16,1.39.68,2A1.67,1.67,0,0,0,32.53,22.93ZM8.21,28.75l1.21.34a6.5,6.5,0,0,1,1-.49c.59-1.85-.22-4.52.95-6.74,1.84-3.48,8.09-4,10,0,1.65,3.48.79,8.48,1.08,12.88.12,1.8-.22,3.57.29,5,.43.21,1,.56,1.52.3a1,1,0,0,0,.8-.53c.43-.41.39-1.52.34-2.21-.11-1.77-.06-3.79-.07-5.55-.06-7.09.7-14.07-7.94-15.74-.36.13-.85-.11-1.28-.06-.63.08-1.37.15-2,.29A8.28,8.28,0,0,0,8.47,21a12.37,12.37,0,0,0-.7,5.5C7.81,27.38,7.62,28.26,8.21,28.75ZM41.68,47.42a8,8,0,0,0,3.22.74l1.26.15c3.35-.42,5.52-1.46,7.21-4.4a8.18,8.18,0,0,0,1-5.53,1.21,1.21,0,0,1-.52-.4,2.47,2.47,0,0,0-1.71.15c-.94,2-.78,4.29-2.34,5.77a6.64,6.64,0,0,1-7.59.36,6.88,6.88,0,0,1-2.14-3.2c-.43-1.19-.07-2.65-.17-4.09-.18-2.79.13-5.84-.06-8.62,0-1.15.07-2.3.1-3.45-.07-.42-.41-.74-.57-1.1l-1.12-.32a8.27,8.27,0,0,1-1,.49c-.75,1.7-.42,5.17-.33,7.06.12,2.26-.17,4.48,0,6.63l-.12,2.05C37.23,43,38.67,45.81,41.68,47.42ZM31.2,43.94a8.32,8.32,0,0,0,1.31-4.1c-.07-1.59.05-3.41-.1-5-.12-1.35.43-3.66,0-4.76-.11-.26-.43-.44-.56-.7a2.32,2.32,0,0,0-1.9.11c-1.77,3.74,1.63,12.59-3.06,14.83a9.07,9.07,0,0,1-4.47.59,5.62,5.62,0,0,1-3.11-1.32c-2.58-2.58-1.19-10.1-1.48-14.35-.17-2.47,1-5.06-1.39-5.91a9.13,9.13,0,0,1-1.07.38,7.4,7.4,0,0,0-.42.61,4.93,4.93,0,0,0,0,2.16c.1,1.72-.12,3.43,0,5.05.36,5.93-1.24,10.7,2.66,14.39a7.08,7.08,0,0,0,3.39,1.86C25.13,48.56,28.87,47.7,31.2,43.94ZM14,48.81a13.86,13.86,0,0,1-2.17-3.5,16.54,16.54,0,0,1-1.1-5.37,26.14,26.14,0,0,0-.25-4.2,3.7,3.7,0,0,0-1.18-.54c-.12.06-.17,0-.4,0l-.78.44a9.6,9.6,0,0,0-.28,4.4c.08.92,0,1.63.09,2.49a16.24,16.24,0,0,0,3.28,7.38c1.06,1.41,2,3.31,4.26,2.44.21-.44.56-1,.3-1.52C15.63,50,14.54,49.41,14,48.81Zm42.58-.6a.76.76,0,0,1-.5,0,23.89,23.89,0,0,0-2.28,2A11.94,11.94,0,0,1,41.32,51.7a34.34,34.34,0,0,1-3.63-2.11c-1-.72-1.73-1.73-3.18-1.92-1.92,1.26-3.57,3-5.73,3.9-1.62.66-3.6.8-5.23,1.43-.15.3-.49.73-.32,1.12a1.1,1.1,0,0,0,.64,1.22c.77.71,2.5,0,3.1-.18A15.27,15.27,0,0,0,33.63,52c.35-.31.8-.42,1.07-.87a15.68,15.68,0,0,1,3,2A31,31,0,0,0,42,55.2a6.66,6.66,0,0,0,2,.4c4.19,1.06,9.09-.9,11.49-3.05.93-.83,2-1.24,2.38-3A2.86,2.86,0,0,0,56.57,48.21Z"/></svg>